<svg xmlns="http://www.w3.org/2000/svg" xmlns:xlink="http://www.w3.org/1999/xlink" width="500" zoomAndPan="magnify" viewBox="0 0 375 374.999991" height="500" preserveAspectRatio="xMidYMid meet" version="1.0"><defs><clipPath id="68a7e85184"><path d="M 148 95 L 228 95 L 228 281.378906 L 148 281.378906 Z M 148 95 " clip-rule="nonzero"/></clipPath><clipPath id="b4e3da94dd"><path d="M 10.894531 10.894531 L 364.097656 10.894531 L 364.097656 364.097656 L 10.894531 364.097656 Z M 10.894531 10.894531 " clip-rule="nonzero"/></clipPath><clipPath id="f6e5df04c3"><path d="M 187.496094 10.894531 C 89.960938 10.894531 10.894531 89.960938 10.894531 187.496094 C 10.894531 285.03125 89.960938 364.097656 187.496094 364.097656 C 285.03125 364.097656 364.097656 285.03125 364.097656 187.496094 C 364.097656 89.960938 285.03125 10.894531 187.496094 10.894531 Z M 187.496094 10.894531 " clip-rule="nonzero"/></clipPath></defs><path fill="#f0a500" d="M 121.570312 254.738281 C 117.613281 254.738281 114.976562 253.421875 112.339844 250.785156 L 59.597656 198.042969 C 54.324219 192.769531 54.324219 184.855469 59.597656 179.582031 L 112.339844 126.84375 C 117.613281 121.566406 125.527344 121.566406 130.800781 126.84375 C 136.074219 132.117188 136.074219 140.027344 130.800781 145.300781 L 87.289062 188.8125 L 130.800781 232.324219 C 136.074219 237.597656 136.074219 245.507812 130.800781 250.785156 C 128.164062 253.421875 125.527344 254.738281 121.570312 254.738281 Z M 121.570312 254.738281 " fill-opacity="1" fill-rule="nonzero"/><path fill="#f0a500" d="M 253.421875 254.738281 C 249.46875 254.738281 246.828125 253.421875 244.191406 250.785156 C 238.917969 245.507812 238.917969 237.597656 244.191406 232.324219 L 287.703125 188.8125 L 244.191406 145.300781 C 238.917969 140.027344 238.917969 132.117188 244.191406 126.84375 C 249.464844 121.566406 257.378906 121.566406 262.652344 126.84375 L 315.394531 179.582031 C 320.667969 184.855469 320.667969 192.769531 315.394531 198.042969 L 262.652344 250.785156 C 260.015625 253.421875 257.378906 254.738281 253.421875 254.738281 Z M 253.421875 254.738281 " fill-opacity="1" fill-rule="nonzero"/><g clip-path="url(#68a7e85184)"><path fill="#f0a500" d="M 161.125 281.109375 C 159.808594 281.109375 158.488281 281.109375 157.171875 279.792969 C 150.578125 277.152344 146.621094 270.5625 149.257812 262.648438 L 202 104.425781 C 204.636719 97.835938 211.230469 93.878906 219.140625 96.515625 C 225.734375 99.152344 229.6875 105.746094 227.050781 113.65625 L 174.3125 271.878906 C 171.675781 277.152344 166.398438 281.109375 161.125 281.109375 Z M 161.125 281.109375 " fill-opacity="1" fill-rule="nonzero"/></g><g clip-path="url(#b4e3da94dd)"><g clip-path="url(#f6e5df04c3)"><path stroke-linecap="butt" transform="matrix(0.75, 0, 0, 0.75, 10.894499, 10.894494)" fill="none" stroke-linejoin="miter" d="M 235.468808 0.0000490205 C 105.421925 0.0000490205 0.0000430205 105.421931 0.0000430205 235.468814 C 0.0000430205 365.515698 105.421925 470.93758 235.468808 470.93758 C 365.515692 470.93758 470.937574 365.515698 470.937574 235.468814 C 470.937574 105.421931 365.515692 0.0000490205 235.468808 0.0000490205 Z M 235.468808 0.0000490205 " stroke="#f0a500" stroke-width="44" stroke-opacity="1" stroke-miterlimit="4"/></g></g></svg>